<?xml version="1.0" encoding="UTF-8" standalone="no"?>
<!-- Created with Inkscape (http://www.inkscape.org/) -->

<svg
   xmlns:ns="http://ns.adobe.com/SaveForWeb/1.0/"
   xmlns:dc="http://purl.org/dc/elements/1.1/"
   xmlns:cc="http://creativecommons.org/ns#"
   xmlns:rdf="http://www.w3.org/1999/02/22-rdf-syntax-ns#"
   xmlns:svg="http://www.w3.org/2000/svg"
   xmlns="http://www.w3.org/2000/svg"
   version="1.1"
   width="351.496"
   height="95.583"
   viewBox="0 0 351.496 95.583"
   id="svg2"
   xml:space="preserve"><defs
   id="defs10" />
<metadata
   id="metadata3">
	<ns:sfw>
		<ns:slices />
		<ns:sliceSourceBounds
   y="372.709"
   x="121.752"
   width="351.496"
   height="95.583"
   bottomLeftOrigin="true" />
	</ns:sfw>
<rdf:RDF><cc:Work
     rdf:about=""><dc:format>image/svg+xml</dc:format><dc:type
       rdf:resource="http://purl.org/dc/dcmitype/StillImage" /><dc:title></dc:title></cc:Work></rdf:RDF></metadata>
<rect
   width="351.496"
   height="95.583"
   x="0"
   y="0"
   id="white"
   style="fill:#ffffff" />
<path
   d="m 335.817,15.103 v 19.975 h 8.189 v 9.828 h -8.188 v 15.559 c 0,3.932 0.572,5.324 5.322,5.324 h 2.703 V 77.99 C 321.485,79.222 318.781,77.664 318.781,62.842 V 44.907 h -6.059 v -9.828 h 6.305 V 15.103 H 217.008 v 14.49 h -17.034 v -14.49 h -81.332 v 14.08 h -13.841 v -14.08 h -4.83 v 14.08 H 86.129 v -14.08 h -13.19 v 62.886 0.002 H 53.612 V 55.144 H 35.35 V 77.991 H 16.023 V 95.583 H 351.496 V 15.103 H 335.817 z M 125.438,77.989 v 0.002 h -15.806 v -6.306 c -4.259,5.897 -8.435,7.537 -15.478,7.537 -9.336,0 -15.396,-5.737 -15.396,-18.021 V 35.078 h 17.033 v 23.176 c 0,5.896 2.047,7.781 6.144,7.781 4.913,0 6.469,-3.687 6.469,-10.318 V 35.078 h 17.034 v 42.911 z m 35.572,-26.86 c -1.146,-0.164 -2.375,-0.489 -3.522,-0.489 -6.96,0 -10.481,3.274 -10.481,12.526 v 14.822 h -17.034 v -42.91 h 15.479 l 0.163,8.682 c 2.376,-6.715 6.552,-9.909 13.186,-9.909 0.736,0 1.476,0.164 2.211,0.245 v 17.033 z m 33.926,0 c -1.146,-0.164 -2.375,-0.489 -3.521,-0.489 -6.962,0 -10.481,3.274 -10.481,12.526 v 14.822 h -17.035 v -42.91 h 15.479 l 0.162,8.682 c 2.377,-6.715 6.553,-9.909 13.188,-9.909 0.733,0 1.473,0.164 2.209,0.245 v 17.033 z m 22.072,26.86 H 199.974 V 35.078 h 17.034 v 42.911 z m 13.827,14.58 c -3.112,0 -6.226,-0.328 -7.535,-0.328 V 80.366 c 1.229,0 2.375,0.082 3.521,0.082 5.322,0 6.551,-1.557 4.83,-6.305 L 217.565,35.078 h 17.117 l 7.532,26.45 7.453,-26.45 h 16.379 L 252.29,75.124 c -4.586,13.267 -6.307,17.445 -21.455,17.445 z M 288.696,68.82 c 2.703,0 5.159,-1.229 6.389,-3.769 h 16.296 c -2.947,10.648 -13.759,14.171 -23.749,14.171 -13.76,0 -24.405,-7.863 -24.405,-22.277 0,-14.086 10.565,-23.094 24.323,-23.094 15.888,0 25.47,10.973 25.224,26.532 H 280.26 c 0,5.08 3.932,8.437 8.436,8.437 z m 7.042,-17.116 h -15.477 c 0,-4.586 2.864,-7.453 7.942,-7.453 4.016,0 7.535,3.521 7.535,7.453 z"
   id="red"
   style="fill:#e2001a" />
<polygon
   points="0,77.991 16.023,77.991 16.023,15.103 35.351,15.103 35.351,38.928 53.612,38.928 53.612,15.103 72.939,15.103 72.939,1.33 351.496,1.33 351.496,0 72.939,0 0,0 "
   id="black" />
</svg>